# Blender v2.79 (sub 0) OBJ File: 'worktop.blend'
# www.blender.org
mtllib worktop.mtl
o Cube_Cube.001
v -59.999996 3.000000 0.000000
v 0.000000 3.000000 -59.999996
v 59.999996 3.000000 0.000000
v 0.000000 3.000000 59.999996
v 0.000000 0.000000 0.000000
v 0.000000 6.000000 0.000000
v -59.999996 0.000000 0.000000
v -59.999996 3.000000 59.999996
v -59.999996 6.000000 0.000000
v -59.999996 3.000000 -59.999996
v 0.000000 0.000000 -59.999996
v 0.000000 6.000000 -59.999996
v 59.999996 3.000000 -59.999996
v 59.999996 0.000000 0.000000
v 59.999996 6.000000 0.000000
v 59.999996 3.000000 59.999996
v 0.000000 0.000000 59.999996
v 0.000000 6.000000 59.999996
v -59.999996 0.000000 59.999996
v -59.999996 6.000000 59.999996
v -59.999996 0.000000 -59.999996
v -59.999996 6.000000 -59.999996
v 59.999996 0.000000 59.999996
v 59.999996 6.000000 59.999996
v 59.999996 0.000000 -59.999996
v 59.999996 6.000000 -59.999996
vt 0.500000 0.166667
vt 0.666667 0.166667
vt 0.666667 0.333333
vt 0.500000 0.333333
vt 0.333333 0.333333
vt 0.333333 0.166667
vt 0.333333 0.000000
vt 0.500000 0.000000
vt 0.666667 0.000000
vt 0.166667 0.500000
vt 0.333333 0.500000
vt 0.333333 0.666667
vt 0.166667 0.666667
vt 0.000000 0.666667
vt 0.000000 0.500000
vt 0.000000 0.333333
vt 0.166667 0.333333
vt 0.333333 0.333333
vt 0.166667 0.166667
vt 0.333333 0.166667
vt 0.000000 0.166667
vt 0.000000 0.000000
vt 0.166667 0.000000
vt 0.333333 0.000000
vt 0.500000 0.500000
vt 0.500000 0.666667
vt 0.333333 0.666667
vt 0.333333 0.500000
vt 0.333333 0.333333
vt 0.500000 0.333333
vt 0.666667 0.333333
vt 0.666667 0.500000
vt 0.666667 0.666667
vt 0.833333 0.166667
vt 1.000000 0.166667
vt 1.000000 0.333333
vt 0.833333 0.333333
vt 0.666667 0.333333
vt 0.666667 0.166667
vt 0.666667 0.000000
vt 0.833333 0.000000
vt 1.000000 0.000000
vt 0.166667 0.833333
vt 0.166667 0.666667
vt 0.333333 0.666667
vt 0.333333 0.833333
vt 0.333333 1.000000
vt 0.166667 1.000000
vt 0.000000 1.000000
vt 0.000000 0.833333
vt 0.000000 0.666667
vn -1.0000 0.0000 0.0000
vn -0.7071 -0.7071 0.0000
vn -0.5773 -0.5773 0.5773
vn -0.7071 0.0000 0.7071
vn -0.5773 0.5773 0.5773
vn -0.7071 0.7071 0.0000
vn -0.5773 0.5773 -0.5773
vn -0.7071 0.0000 -0.7071
vn -0.5773 -0.5773 -0.5773
vn 0.0000 0.0000 -1.0000
vn 0.0000 -0.7071 -0.7071
vn 0.0000 0.7071 -0.7071
vn 0.5773 0.5773 -0.5773
vn 0.7071 0.0000 -0.7071
vn 0.5773 -0.5773 -0.5773
vn 1.0000 0.0000 0.0000
vn 0.7071 -0.7071 0.0000
vn 0.7071 0.7071 0.0000
vn 0.5773 0.5773 0.5773
vn 0.7071 0.0000 0.7071
vn 0.5773 -0.5773 0.5773
vn 0.0000 0.0000 1.0000
vn 0.0000 -0.7071 0.7071
vn 0.0000 0.7071 0.7071
vn 0.0000 -1.0000 0.0000
vn 0.0000 1.0000 0.0000
usemtl Worktop
s 1
f 1/1/1 7/2/2 19/3/3 8/4/4
f 1/1/1 8/4/4 20/5/5 9/6/6
f 1/1/1 9/6/6 22/7/7 10/8/8
f 1/1/1 10/8/8 21/9/9 7/2/2
f 2/10/10 11/11/11 21/12/9 10/13/8
f 2/10/10 10/13/8 22/14/7 12/15/12
f 2/10/10 12/15/12 26/16/13 13/17/14
f 2/10/10 13/17/14 25/18/15 11/11/11
f 3/19/16 14/20/17 25/18/15 13/17/14
f 3/19/16 13/17/14 26/16/13 15/21/18
f 3/19/16 15/21/18 24/22/19 16/23/20
f 3/19/16 16/23/20 23/24/21 14/20/17
f 4/25/22 17/26/23 23/27/21 16/28/20
f 4/25/22 16/28/20 24/29/19 18/30/24
f 4/25/22 18/30/24 20/31/5 8/32/4
f 4/25/22 8/32/4 19/33/3 17/26/23
f 5/34/25 7/35/2 21/36/9 11/37/11
f 5/34/25 11/37/11 25/38/15 14/39/17
f 5/34/25 14/39/17 23/40/21 17/41/23
f 5/34/25 17/41/23 19/42/3 7/35/2
f 6/43/26 15/44/18 26/45/13 12/46/12
f 6/43/26 12/46/12 22/47/7 9/48/6
f 6/43/26 9/48/6 20/49/5 18/50/24
f 6/43/26 18/50/24 24/51/19 15/44/18
o Cube.001_Cube.000
v -59.999996 7.000000 0.000000
v 0.000000 7.000000 -59.999996
v 59.999996 7.000000 0.000000
v 0.000000 7.000000 59.999996
v 0.000000 6.000000 0.000000
v 0.000000 8.000000 0.000000
v -59.999996 6.000000 0.000000
v -59.999996 7.000000 59.999996
v -59.999996 8.000000 0.000000
v -59.999996 7.000000 -59.999996
v 0.000000 6.000000 -59.999996
v 0.000000 8.000000 -59.999996
v 59.999996 7.000000 -59.999996
v 59.999996 6.000000 0.000000
v 59.999996 8.000000 0.000000
v 59.999996 7.000000 59.999996
v 0.000000 6.000000 59.999996
v 0.000000 8.000000 59.999996
v -59.999996 6.000000 59.999996
v -59.999996 8.000000 59.999996
v -59.999996 6.000000 -59.999996
v -59.999996 8.000000 -59.999996
v 59.999996 6.000000 59.999996
v 59.999996 8.000000 59.999996
v 59.999996 6.000000 -59.999996
v 59.999996 8.000000 -59.999996
vt 0.500000 0.166667
vt 0.666667 0.166667
vt 0.666667 0.333333
vt 0.500000 0.333333
vt 0.333333 0.333333
vt 0.333333 0.166667
vt 0.333333 0.000000
vt 0.500000 0.000000
vt 0.666667 0.000000
vt 0.166667 0.500000
vt 0.333333 0.500000
vt 0.333333 0.666667
vt 0.166667 0.666667
vt 0.000000 0.666667
vt 0.000000 0.500000
vt 0.000000 0.333333
vt 0.166667 0.333333
vt 0.333333 0.333333
vt 0.166667 0.166667
vt 0.333333 0.166667
vt 0.000000 0.166667
vt 0.000000 0.000000
vt 0.166667 0.000000
vt 0.333333 0.000000
vt 0.500000 0.500000
vt 0.500000 0.666667
vt 0.333333 0.666667
vt 0.333333 0.500000
vt 0.333333 0.333333
vt 0.500000 0.333333
vt 0.666667 0.333333
vt 0.666667 0.500000
vt 0.666667 0.666667
vt 0.833333 0.166667
vt 1.000000 0.166667
vt 1.000000 0.333333
vt 0.833333 0.333333
vt 0.666667 0.333333
vt 0.666667 0.166667
vt 0.666667 0.000000
vt 0.833333 0.000000
vt 1.000000 0.000000
vt 0.166667 0.833333
vt 0.166667 0.666667
vt 0.333333 0.666667
vt 0.333333 0.833333
vt 0.333333 1.000000
vt 0.166667 1.000000
vt 0.000000 1.000000
vt 0.000000 0.833333
vt 0.000000 0.666667
vn -1.0000 0.0000 0.0000
vn -0.7071 -0.7071 0.0000
vn -0.5773 -0.5773 0.5773
vn -0.7071 0.0000 0.7071
vn -0.5773 0.5773 0.5773
vn -0.7071 0.7071 0.0000
vn -0.5773 0.5773 -0.5773
vn -0.7071 0.0000 -0.7071
vn -0.5773 -0.5773 -0.5773
vn 0.0000 0.0000 -1.0000
vn 0.0000 -0.7071 -0.7071
vn 0.0000 0.7071 -0.7071
vn 0.5773 0.5773 -0.5773
vn 0.7071 0.0000 -0.7071
vn 0.5773 -0.5773 -0.5773
vn 1.0000 0.0000 0.0000
vn 0.7071 -0.7071 0.0000
vn 0.7071 0.7071 0.0000
vn 0.5773 0.5773 0.5773
vn 0.7071 0.0000 0.7071
vn 0.5773 -0.5773 0.5773
vn 0.0000 0.0000 1.0000
vn 0.0000 -0.7071 0.7071
vn 0.0000 0.7071 0.7071
vn 0.0000 -1.0000 0.0000
vn 0.0000 1.0000 0.0000
usemtl Worktop2
s 1
f 27/52/27 33/53/28 45/54/29 34/55/30
f 27/52/27 34/55/30 46/56/31 35/57/32
f 27/52/27 35/57/32 48/58/33 36/59/34
f 27/52/27 36/59/34 47/60/35 33/53/28
f 28/61/36 37/62/37 47/63/35 36/64/34
f 28/61/36 36/64/34 48/65/33 38/66/38
f 28/61/36 38/66/38 52/67/39 39/68/40
f 28/61/36 39/68/40 51/69/41 37/62/37
f 29/70/42 40/71/43 51/69/41 39/68/40
f 29/70/42 39/68/40 52/67/39 41/72/44
f 29/70/42 41/72/44 50/73/45 42/74/46
f 29/70/42 42/74/46 49/75/47 40/71/43
f 30/76/48 43/77/49 49/78/47 42/79/46
f 30/76/48 42/79/46 50/80/45 44/81/50
f 30/76/48 44/81/50 46/82/31 34/83/30
f 30/76/48 34/83/30 45/84/29 43/77/49
f 31/85/51 33/86/28 47/87/35 37/88/37
f 31/85/51 37/88/37 51/89/41 40/90/43
f 31/85/51 40/90/43 49/91/47 43/92/49
f 31/85/51 43/92/49 45/93/29 33/86/28
f 32/94/52 41/95/44 52/96/39 38/97/38
f 32/94/52 38/97/38 48/98/33 35/99/32
f 32/94/52 35/99/32 46/100/31 44/101/50
f 32/94/52 44/101/50 50/102/45 41/95/44
