# Blender v2.79 (sub 0) OBJ File: 'tray-space-150.blend'
# www.blender.org
mtllib tray-space-150.mtl
o Cube.001_Cube.003
v 11.999999 87.000000 0.000000
v 13.499999 87.000000 -58.999996
v 14.999999 87.000000 0.000000
v 13.499999 87.000000 58.999996
v 13.499999 0.000000 0.000000
v 13.499999 174.000000 0.000000
v 11.999999 0.000000 0.000000
v 11.999999 87.000000 58.999996
v 11.999999 174.000000 0.000000
v 11.999999 87.000000 -58.999996
v 13.499999 0.000000 -58.999996
v 13.499999 174.000000 -58.999996
v 14.999999 87.000000 -58.999996
v 14.999999 0.000000 0.000000
v 14.999999 174.000000 0.000000
v 14.999999 87.000000 58.999996
v 13.499999 0.000000 58.999996
v 13.499999 174.000000 58.999996
v 11.999999 0.000000 58.999996
v 11.999999 174.000000 58.999996
v 11.999999 0.000000 -58.999996
v 11.999999 174.000000 -58.999996
v 14.999999 0.000000 58.999996
v 14.999999 174.000000 58.999996
v 14.999999 0.000000 -58.999996
v 14.999999 174.000000 -58.999996
vt 0.500000 0.166667
vt 0.666667 0.166667
vt 0.666667 0.333333
vt 0.500000 0.333333
vt 0.333333 0.333333
vt 0.333333 0.166667
vt 0.333333 0.000000
vt 0.500000 0.000000
vt 0.666667 0.000000
vt 0.166667 0.500000
vt 0.333333 0.500000
vt 0.333333 0.666667
vt 0.166667 0.666667
vt 0.000000 0.666667
vt 0.000000 0.500000
vt 0.000000 0.333333
vt 0.166667 0.333333
vt 0.333333 0.333333
vt 0.166667 0.166667
vt 0.333333 0.166667
vt 0.000000 0.166667
vt 0.000000 0.000000
vt 0.166667 0.000000
vt 0.333333 0.000000
vt 0.500000 0.500000
vt 0.500000 0.666667
vt 0.333333 0.666667
vt 0.333333 0.500000
vt 0.333333 0.333333
vt 0.500000 0.333333
vt 0.666667 0.333333
vt 0.666667 0.500000
vt 0.666667 0.666667
vt 0.833333 0.166667
vt 1.000000 0.166667
vt 1.000000 0.333333
vt 0.833333 0.333333
vt 0.666667 0.333333
vt 0.666667 0.166667
vt 0.666667 0.000000
vt 0.833333 0.000000
vt 1.000000 0.000000
vt 0.166667 0.833333
vt 0.166667 0.666667
vt 0.333333 0.666667
vt 0.333333 0.833333
vt 0.333333 1.000000
vt 0.166667 1.000000
vt 0.000000 1.000000
vt 0.000000 0.833333
vt 0.000000 0.666667
vn -1.0000 0.0000 0.0000
vn -0.7071 -0.7071 0.0000
vn -0.5773 -0.5773 0.5773
vn -0.7071 0.0000 0.7071
vn -0.5773 0.5773 0.5773
vn -0.7071 0.7071 0.0000
vn -0.5773 0.5773 -0.5773
vn -0.7071 0.0000 -0.7071
vn -0.5773 -0.5773 -0.5773
vn 0.0000 0.0000 -1.0000
vn 0.0000 -0.7071 -0.7071
vn 0.0000 0.7071 -0.7071
vn 0.5773 0.5773 -0.5773
vn 0.7071 0.0000 -0.7071
vn 0.5773 -0.5773 -0.5773
vn 1.0000 0.0000 0.0000
vn 0.7071 -0.7071 0.0000
vn 0.7071 0.7071 0.0000
vn 0.5773 0.5773 0.5773
vn 0.7071 0.0000 0.7071
vn 0.5773 -0.5773 0.5773
vn 0.0000 0.0000 1.0000
vn 0.0000 -0.7071 0.7071
vn 0.0000 0.7071 0.7071
vn 0.0000 -1.0000 0.0000
vn 0.0000 1.0000 0.0000
usemtl ts150GableRight
s 1
f 1/1/1 7/2/2 19/3/3 8/4/4
f 1/1/1 8/4/4 20/5/5 9/6/6
f 1/1/1 9/6/6 22/7/7 10/8/8
f 1/1/1 10/8/8 21/9/9 7/2/2
f 2/10/10 11/11/11 21/12/9 10/13/8
f 2/10/10 10/13/8 22/14/7 12/15/12
f 2/10/10 12/15/12 26/16/13 13/17/14
f 2/10/10 13/17/14 25/18/15 11/11/11
f 3/19/16 14/20/17 25/18/15 13/17/14
f 3/19/16 13/17/14 26/16/13 15/21/18
f 3/19/16 15/21/18 24/22/19 16/23/20
f 3/19/16 16/23/20 23/24/21 14/20/17
f 4/25/22 17/26/23 23/27/21 16/28/20
f 4/25/22 16/28/20 24/29/19 18/30/24
f 4/25/22 18/30/24 20/31/5 8/32/4
f 4/25/22 8/32/4 19/33/3 17/26/23
f 5/34/25 7/35/2 21/36/9 11/37/11
f 5/34/25 11/37/11 25/38/15 14/39/17
f 5/34/25 14/39/17 23/40/21 17/41/23
f 5/34/25 17/41/23 19/42/3 7/35/2
f 6/43/26 15/44/18 26/45/13 12/46/12
f 6/43/26 12/46/12 22/47/7 9/48/6
f 6/43/26 9/48/6 20/49/5 18/50/24
f 6/43/26 18/50/24 24/51/19 15/44/18
o Cube.002_Cube.004
v -14.999999 87.000000 0.000000
v -13.499999 87.000000 -58.999996
v -11.999999 87.000000 0.000000
v -13.499999 87.000000 58.999996
v -13.499999 0.000000 0.000000
v -13.499999 174.000000 0.000000
v -14.999999 0.000000 0.000000
v -14.999999 87.000000 58.999996
v -14.999999 174.000000 0.000000
v -14.999999 87.000000 -58.999996
v -13.499999 0.000000 -58.999996
v -13.499999 174.000000 -58.999996
v -11.999999 87.000000 -58.999996
v -11.999999 0.000000 0.000000
v -11.999999 174.000000 0.000000
v -11.999999 87.000000 58.999996
v -13.499999 0.000000 58.999996
v -13.499999 174.000000 58.999996
v -14.999999 0.000000 58.999996
v -14.999999 174.000000 58.999996
v -14.999999 0.000000 -58.999996
v -14.999999 174.000000 -58.999996
v -11.999999 0.000000 58.999996
v -11.999999 174.000000 58.999996
v -11.999999 0.000000 -58.999996
v -11.999999 174.000000 -58.999996
vt 0.500000 0.166667
vt 0.666667 0.166667
vt 0.666667 0.333333
vt 0.500000 0.333333
vt 0.333333 0.333333
vt 0.333333 0.166667
vt 0.333333 0.000000
vt 0.500000 0.000000
vt 0.666667 0.000000
vt 0.166667 0.500000
vt 0.333333 0.500000
vt 0.333333 0.666667
vt 0.166667 0.666667
vt 0.000000 0.666667
vt 0.000000 0.500000
vt 0.000000 0.333333
vt 0.166667 0.333333
vt 0.333333 0.333333
vt 0.166667 0.166667
vt 0.333333 0.166667
vt 0.000000 0.166667
vt 0.000000 0.000000
vt 0.166667 0.000000
vt 0.333333 0.000000
vt 0.500000 0.500000
vt 0.500000 0.666667
vt 0.333333 0.666667
vt 0.333333 0.500000
vt 0.333333 0.333333
vt 0.500000 0.333333
vt 0.666667 0.333333
vt 0.666667 0.500000
vt 0.666667 0.666667
vt 0.833333 0.166667
vt 1.000000 0.166667
vt 1.000000 0.333333
vt 0.833333 0.333333
vt 0.666667 0.333333
vt 0.666667 0.166667
vt 0.666667 0.000000
vt 0.833333 0.000000
vt 1.000000 0.000000
vt 0.166667 0.833333
vt 0.166667 0.666667
vt 0.333333 0.666667
vt 0.333333 0.833333
vt 0.333333 1.000000
vt 0.166667 1.000000
vt 0.000000 1.000000
vt 0.000000 0.833333
vt 0.000000 0.666667
vn -1.0000 0.0000 0.0000
vn -0.7071 -0.7071 0.0000
vn -0.5773 -0.5773 0.5773
vn -0.7071 0.0000 0.7071
vn -0.5773 0.5773 0.5773
vn -0.7071 0.7071 0.0000
vn -0.5773 0.5773 -0.5773
vn -0.7071 0.0000 -0.7071
vn -0.5773 -0.5773 -0.5773
vn 0.0000 0.0000 -1.0000
vn 0.0000 -0.7071 -0.7071
vn 0.0000 0.7071 -0.7071
vn 0.5773 0.5773 -0.5773
vn 0.7071 0.0000 -0.7071
vn 0.5773 -0.5773 -0.5773
vn 1.0000 0.0000 0.0000
vn 0.7071 -0.7071 0.0000
vn 0.7071 0.7071 0.0000
vn 0.5773 0.5773 0.5773
vn 0.7071 0.0000 0.7071
vn 0.5773 -0.5773 0.5773
vn 0.0000 0.0000 1.0000
vn 0.0000 -0.7071 0.7071
vn 0.0000 0.7071 0.7071
vn 0.0000 -1.0000 0.0000
vn 0.0000 1.0000 0.0000
usemtl ts150GableLeft
s 1
f 27/52/27 33/53/28 45/54/29 34/55/30
f 27/52/27 34/55/30 46/56/31 35/57/32
f 27/52/27 35/57/32 48/58/33 36/59/34
f 27/52/27 36/59/34 47/60/35 33/53/28
f 28/61/36 37/62/37 47/63/35 36/64/34
f 28/61/36 36/64/34 48/65/33 38/66/38
f 28/61/36 38/66/38 52/67/39 39/68/40
f 28/61/36 39/68/40 51/69/41 37/62/37
f 29/70/42 40/71/43 51/69/41 39/68/40
f 29/70/42 39/68/40 52/67/39 41/72/44
f 29/70/42 41/72/44 50/73/45 42/74/46
f 29/70/42 42/74/46 49/75/47 40/71/43
f 30/76/48 43/77/49 49/78/47 42/79/46
f 30/76/48 42/79/46 50/80/45 44/81/50
f 30/76/48 44/81/50 46/82/31 34/83/30
f 30/76/48 34/83/30 45/84/29 43/77/49
f 31/85/51 33/86/28 47/87/35 37/88/37
f 31/85/51 37/88/37 51/89/41 40/90/43
f 31/85/51 40/90/43 49/91/47 43/92/49
f 31/85/51 43/92/49 45/93/29 33/86/28
f 32/94/52 41/95/44 52/96/39 38/97/38
f 32/94/52 38/97/38 48/98/33 35/99/32
f 32/94/52 35/99/32 46/100/31 44/101/50
f 32/94/52 44/101/50 50/102/45 41/95/44
o Cube.000
v -12.000000 87.000000 -57.500000
v 0.000000 87.000000 -59.000000
v 12.000000 87.000000 -57.500000
v 0.000000 87.000000 -56.000000
v 0.000000 0.000000 -57.500000
v 0.000000 174.000000 -57.500000
v -12.000000 0.000000 -57.500000
v -12.000000 87.000000 -56.000000
v -12.000000 174.000000 -57.500000
v -12.000000 87.000000 -59.000000
v 0.000000 0.000000 -59.000000
v 0.000000 174.000000 -59.000000
v 12.000000 87.000000 -59.000000
v 12.000000 0.000000 -57.500000
v 12.000000 174.000000 -57.500000
v 12.000000 87.000000 -56.000000
v 0.000000 0.000000 -56.000000
v 0.000000 174.000000 -56.000000
v -12.000000 0.000000 -56.000000
v -12.000000 174.000000 -56.000000
v -12.000000 0.000000 -59.000000
v -12.000000 174.000000 -59.000000
v 12.000000 0.000000 -56.000000
v 12.000000 174.000000 -56.000000
v 12.000000 0.000000 -59.000000
v 12.000000 174.000000 -59.000000
vt 0.500000 0.166667
vt 0.666667 0.166667
vt 0.666667 0.333333
vt 0.500000 0.333333
vt 0.333333 0.333333
vt 0.333333 0.166667
vt 0.333333 0.000000
vt 0.500000 0.000000
vt 0.666667 0.000000
vt 0.166667 0.500000
vt 0.333333 0.500000
vt 0.333333 0.666667
vt 0.166667 0.666667
vt 0.000000 0.666667
vt 0.000000 0.500000
vt 0.000000 0.333333
vt 0.166667 0.333333
vt 0.333333 0.333333
vt 0.166667 0.166667
vt 0.333333 0.166667
vt 0.000000 0.166667
vt 0.000000 0.000000
vt 0.166667 0.000000
vt 0.333333 0.000000
vt 0.500000 0.500000
vt 0.500000 0.666667
vt 0.333333 0.666667
vt 0.333333 0.500000
vt 0.333333 0.333333
vt 0.500000 0.333333
vt 0.666667 0.333333
vt 0.666667 0.500000
vt 0.666667 0.666667
vt 0.833333 0.166667
vt 1.000000 0.166667
vt 1.000000 0.333333
vt 0.833333 0.333333
vt 0.666667 0.333333
vt 0.666667 0.166667
vt 0.666667 0.000000
vt 0.833333 0.000000
vt 1.000000 0.000000
vt 0.166667 0.833333
vt 0.166667 0.666667
vt 0.333333 0.666667
vt 0.333333 0.833333
vt 0.333333 1.000000
vt 0.166667 1.000000
vt 0.000000 1.000000
vt 0.000000 0.833333
vt 0.000000 0.666667
vn -1.0000 0.0000 0.0000
vn -0.7071 -0.7071 0.0000
vn -0.5773 -0.5773 0.5773
vn -0.7071 0.0000 0.7071
vn -0.5773 0.5773 0.5773
vn -0.7071 0.7071 0.0000
vn -0.5773 0.5773 -0.5773
vn -0.7071 0.0000 -0.7071
vn -0.5773 -0.5773 -0.5773
vn 0.0000 0.0000 -1.0000
vn 0.0000 -0.7071 -0.7071
vn 0.0000 0.7071 -0.7071
vn 0.5773 0.5773 -0.5773
vn 0.7071 0.0000 -0.7071
vn 0.5773 -0.5773 -0.5773
vn 1.0000 0.0000 0.0000
vn 0.7071 -0.7071 0.0000
vn 0.7071 0.7071 0.0000
vn 0.5773 0.5773 0.5773
vn 0.7071 0.0000 0.7071
vn 0.5773 -0.5773 0.5773
vn 0.0000 0.0000 1.0000
vn 0.0000 -0.7071 0.7071
vn 0.0000 0.7071 0.7071
vn 0.0000 -1.0000 0.0000
vn 0.0000 1.0000 0.0000
usemtl Back
s 1
f 53/103/53 59/104/54 71/105/55 60/106/56
f 53/103/53 60/106/56 72/107/57 61/108/58
f 53/103/53 61/108/58 74/109/59 62/110/60
f 53/103/53 62/110/60 73/111/61 59/104/54
f 54/112/62 63/113/63 73/114/61 62/115/60
f 54/112/62 62/115/60 74/116/59 64/117/64
f 54/112/62 64/117/64 78/118/65 65/119/66
f 54/112/62 65/119/66 77/120/67 63/113/63
f 55/121/68 66/122/69 77/120/67 65/119/66
f 55/121/68 65/119/66 78/118/65 67/123/70
f 55/121/68 67/123/70 76/124/71 68/125/72
f 55/121/68 68/125/72 75/126/73 66/122/69
f 56/127/74 69/128/75 75/129/73 68/130/72
f 56/127/74 68/130/72 76/131/71 70/132/76
f 56/127/74 70/132/76 72/133/57 60/134/56
f 56/127/74 60/134/56 71/135/55 69/128/75
f 57/136/77 59/137/54 73/138/61 63/139/63
f 57/136/77 63/139/63 77/140/67 66/141/69
f 57/136/77 66/141/69 75/142/73 69/143/75
f 57/136/77 69/143/75 71/144/55 59/137/54
f 58/145/78 67/146/70 78/147/65 64/148/64
f 58/145/78 64/148/64 74/149/59 61/150/58
f 58/145/78 61/150/58 72/151/57 70/152/76
f 58/145/78 70/152/76 76/153/71 67/146/70
o Cube.003_Cube.001
v -12.000000 1.500000 1.500000
v 0.000000 1.500000 -56.000000
v 12.000000 1.500000 1.500000
v 0.000000 1.500000 59.000000
v 0.000000 0.000000 1.500000
v 0.000000 3.000000 1.500000
v -12.000000 0.000000 1.500000
v -12.000000 1.500000 59.000000
v -12.000000 3.000000 1.500000
v -12.000000 1.500000 -56.000000
v 0.000000 0.000000 -56.000000
v 0.000000 3.000000 -56.000000
v 12.000000 1.500000 -56.000000
v 12.000000 0.000000 1.500000
v 12.000000 3.000000 1.500000
v 12.000000 1.500000 59.000000
v 0.000000 0.000000 59.000000
v 0.000000 3.000000 59.000000
v -12.000000 0.000000 59.000000
v -12.000000 3.000000 59.000000
v -12.000000 0.000000 -56.000000
v -12.000000 3.000000 -56.000000
v 12.000000 0.000000 59.000000
v 12.000000 3.000000 59.000000
v 12.000000 0.000000 -56.000000
v 12.000000 3.000000 -56.000000
vt 0.500000 0.166667
vt 0.666667 0.166667
vt 0.666667 0.333333
vt 0.500000 0.333333
vt 0.333333 0.333333
vt 0.333333 0.166667
vt 0.333333 0.000000
vt 0.500000 0.000000
vt 0.666667 0.000000
vt 0.166667 0.500000
vt 0.333333 0.500000
vt 0.333333 0.666667
vt 0.166667 0.666667
vt 0.000000 0.666667
vt 0.000000 0.500000
vt 0.000000 0.333333
vt 0.166667 0.333333
vt 0.333333 0.333333
vt 0.166667 0.166667
vt 0.333333 0.166667
vt 0.000000 0.166667
vt 0.000000 0.000000
vt 0.166667 0.000000
vt 0.333333 0.000000
vt 0.500000 0.500000
vt 0.500000 0.666667
vt 0.333333 0.666667
vt 0.333333 0.500000
vt 0.333333 0.333333
vt 0.500000 0.333333
vt 0.666667 0.333333
vt 0.666667 0.500000
vt 0.666667 0.666667
vt 0.833333 0.166667
vt 1.000000 0.166667
vt 1.000000 0.333333
vt 0.833333 0.333333
vt 0.666667 0.333333
vt 0.666667 0.166667
vt 0.666667 0.000000
vt 0.833333 0.000000
vt 1.000000 0.000000
vt 0.166667 0.833333
vt 0.166667 0.666667
vt 0.333333 0.666667
vt 0.333333 0.833333
vt 0.333333 1.000000
vt 0.166667 1.000000
vt 0.000000 1.000000
vt 0.000000 0.833333
vt 0.000000 0.666667
vn -1.0000 0.0000 0.0000
vn -0.7071 -0.7071 0.0000
vn -0.5773 -0.5773 0.5773
vn -0.7071 0.0000 0.7071
vn -0.5773 0.5773 0.5773
vn -0.7071 0.7071 0.0000
vn -0.5773 0.5773 -0.5773
vn -0.7071 0.0000 -0.7071
vn -0.5773 -0.5773 -0.5773
vn 0.0000 0.0000 -1.0000
vn 0.0000 -0.7071 -0.7071
vn 0.0000 0.7071 -0.7071
vn 0.5773 0.5773 -0.5773
vn 0.7071 0.0000 -0.7071
vn 0.5773 -0.5773 -0.5773
vn 1.0000 0.0000 0.0000
vn 0.7071 -0.7071 0.0000
vn 0.7071 0.7071 0.0000
vn 0.5773 0.5773 0.5773
vn 0.7071 0.0000 0.7071
vn 0.5773 -0.5773 0.5773
vn 0.0000 0.0000 1.0000
vn 0.0000 -0.7071 0.7071
vn 0.0000 0.7071 0.7071
vn 0.0000 -1.0000 0.0000
vn 0.0000 1.0000 0.0000
usemtl Bottom
s 1
f 79/154/79 85/155/80 97/156/81 86/157/82
f 79/154/79 86/157/82 98/158/83 87/159/84
f 79/154/79 87/159/84 100/160/85 88/161/86
f 79/154/79 88/161/86 99/162/87 85/155/80
f 80/163/88 89/164/89 99/165/87 88/166/86
f 80/163/88 88/166/86 100/167/85 90/168/90
f 80/163/88 90/168/90 104/169/91 91/170/92
f 80/163/88 91/170/92 103/171/93 89/164/89
f 81/172/94 92/173/95 103/171/93 91/170/92
f 81/172/94 91/170/92 104/169/91 93/174/96
f 81/172/94 93/174/96 102/175/97 94/176/98
f 81/172/94 94/176/98 101/177/99 92/173/95
f 82/178/100 95/179/101 101/180/99 94/181/98
f 82/178/100 94/181/98 102/182/97 96/183/102
f 82/178/100 96/183/102 98/184/83 86/185/82
f 82/178/100 86/185/82 97/186/81 95/179/101
f 83/187/103 85/188/80 99/189/87 89/190/89
f 83/187/103 89/190/89 103/191/93 92/192/95
f 83/187/103 92/192/95 101/193/99 95/194/101
f 83/187/103 95/194/101 97/195/81 85/188/80
f 84/196/104 93/197/96 104/198/91 90/199/90
f 84/196/104 90/199/90 100/200/85 87/201/84
f 84/196/104 87/201/84 98/202/83 96/203/102
f 84/196/104 96/203/102 102/204/97 93/197/96
o Cube.004_Cube.005
v -12.000000 172.499985 1.500000
v 0.000000 172.499985 -56.000000
v 12.000000 172.499985 1.500000
v 0.000000 172.499985 59.000000
v 0.000000 170.999985 1.500000
v 0.000000 173.999985 1.500000
v -12.000000 170.999985 1.500000
v -12.000000 172.499985 59.000000
v -12.000000 173.999985 1.500000
v -12.000000 172.499985 -56.000000
v 0.000000 170.999985 -56.000000
v 0.000000 173.999985 -56.000000
v 12.000000 172.499985 -56.000000
v 12.000000 170.999985 1.500000
v 12.000000 173.999985 1.500000
v 12.000000 172.499985 59.000000
v 0.000000 170.999985 59.000000
v 0.000000 173.999985 59.000000
v -12.000000 170.999985 59.000000
v -12.000000 173.999985 59.000000
v -12.000000 170.999985 -56.000000
v -12.000000 173.999985 -56.000000
v 12.000000 170.999985 59.000000
v 12.000000 173.999985 59.000000
v 12.000000 170.999985 -56.000000
v 12.000000 173.999985 -56.000000
vt 0.500000 0.166667
vt 0.666667 0.166667
vt 0.666667 0.333333
vt 0.500000 0.333333
vt 0.333333 0.333333
vt 0.333333 0.166667
vt 0.333333 0.000000
vt 0.500000 0.000000
vt 0.666667 0.000000
vt 0.166667 0.500000
vt 0.333333 0.500000
vt 0.333333 0.666667
vt 0.166667 0.666667
vt 0.000000 0.666667
vt 0.000000 0.500000
vt 0.000000 0.333333
vt 0.166667 0.333333
vt 0.333333 0.333333
vt 0.166667 0.166667
vt 0.333333 0.166667
vt 0.000000 0.166667
vt 0.000000 0.000000
vt 0.166667 0.000000
vt 0.333333 0.000000
vt 0.500000 0.500000
vt 0.500000 0.666667
vt 0.333333 0.666667
vt 0.333333 0.500000
vt 0.333333 0.333333
vt 0.500000 0.333333
vt 0.666667 0.333333
vt 0.666667 0.500000
vt 0.666667 0.666667
vt 0.833333 0.166667
vt 1.000000 0.166667
vt 1.000000 0.333333
vt 0.833333 0.333333
vt 0.666667 0.333333
vt 0.666667 0.166667
vt 0.666667 0.000000
vt 0.833333 0.000000
vt 1.000000 0.000000
vt 0.166667 0.833333
vt 0.166667 0.666667
vt 0.333333 0.666667
vt 0.333333 0.833333
vt 0.333333 1.000000
vt 0.166667 1.000000
vt 0.000000 1.000000
vt 0.000000 0.833333
vt 0.000000 0.666667
vn -1.0000 0.0000 0.0000
vn -0.7071 -0.7071 0.0000
vn -0.5773 -0.5773 0.5773
vn -0.7071 0.0000 0.7071
vn -0.5773 0.5773 0.5773
vn -0.7071 0.7071 0.0000
vn -0.5773 0.5773 -0.5773
vn -0.7071 0.0000 -0.7071
vn -0.5773 -0.5773 -0.5773
vn 0.0000 0.0000 -1.0000
vn 0.0000 -0.7071 -0.7071
vn 0.0000 0.7071 -0.7071
vn 0.5773 0.5773 -0.5773
vn 0.7071 0.0000 -0.7071
vn 0.5773 -0.5773 -0.5773
vn 1.0000 0.0000 0.0000
vn 0.7071 -0.7071 0.0000
vn 0.7071 0.7071 0.0000
vn 0.5773 0.5773 0.5773
vn 0.7071 0.0000 0.7071
vn 0.5773 -0.5773 0.5773
vn 0.0000 0.0000 1.0000
vn 0.0000 -0.7071 0.7071
vn 0.0000 0.7071 0.7071
vn 0.0000 -1.0000 0.0000
vn 0.0000 1.0000 0.0000
usemtl Top
s 1
f 105/205/105 111/206/106 123/207/107 112/208/108
f 105/205/105 112/208/108 124/209/109 113/210/110
f 105/205/105 113/210/110 126/211/111 114/212/112
f 105/205/105 114/212/112 125/213/113 111/206/106
f 106/214/114 115/215/115 125/216/113 114/217/112
f 106/214/114 114/217/112 126/218/111 116/219/116
f 106/214/114 116/219/116 130/220/117 117/221/118
f 106/214/114 117/221/118 129/222/119 115/215/115
f 107/223/120 118/224/121 129/222/119 117/221/118
f 107/223/120 117/221/118 130/220/117 119/225/122
f 107/223/120 119/225/122 128/226/123 120/227/124
f 107/223/120 120/227/124 127/228/125 118/224/121
f 108/229/126 121/230/127 127/231/125 120/232/124
f 108/229/126 120/232/124 128/233/123 122/234/128
f 108/229/126 122/234/128 124/235/109 112/236/108
f 108/229/126 112/236/108 123/237/107 121/230/127
f 109/238/129 111/239/106 125/240/113 115/241/115
f 109/238/129 115/241/115 129/242/119 118/243/121
f 109/238/129 118/243/121 127/244/125 121/245/127
f 109/238/129 121/245/127 123/246/107 111/239/106
f 110/247/130 119/248/122 130/249/117 116/250/116
f 110/247/130 116/250/116 126/251/111 113/252/110
f 110/247/130 113/252/110 124/253/109 122/254/128
f 110/247/130 122/254/128 128/255/123 119/248/122
